<svg width="38" height="38" viewBox="0 0 38 38" fill="none" xmlns="http://www.w3.org/2000/svg">
<path d="M11.0834 32.7148V30.0833C11.0834 29.2434 11.417 28.438 12.0109 27.8441C12.6048 27.2503 13.4102 26.9166 14.2501 26.9166H23.7501C24.5899 26.9166 25.3954 27.2503 25.9893 27.8441C26.5831 28.438 26.9167 29.2434 26.9167 30.0833V32.7148M34.8334 19C34.8334 27.7445 27.7446 34.8333 19.0001 34.8333C10.2556 34.8333 3.16675 27.7445 3.16675 19C3.16675 10.2555 10.2556 3.16663 19.0001 3.16663C27.7446 3.16663 34.8334 10.2555 34.8334 19ZM23.7501 15.8333C23.7501 18.4566 21.6234 20.5833 19.0001 20.5833C16.3767 20.5833 14.2501 18.4566 14.2501 15.8333C14.2501 13.2099 16.3767 11.0833 19.0001 11.0833C21.6234 11.0833 23.7501 13.2099 23.7501 15.8333Z" stroke="black" stroke-width="3" stroke-linecap="round" stroke-linejoin="round"/>
</svg>
